<mxfile host="app.diagrams.net" modified="2024-04-21T20:35:34.744Z" agent="Mozilla/5.0 (Windows NT 10.0; Win64; x64) AppleWebKit/537.36 (KHTML, like Gecko) Chrome/124.0.0.0 Safari/537.36 Edg/124.0.0.0" etag="F8Us30L62Z-YGdKV8ry3" version="24.2.7" type="google">
  <diagram name="Page-1" id="td47tIoWJRVJoF8D6y3X">
    <mxGraphModel grid="1" page="1" gridSize="10" guides="1" tooltips="1" connect="1" arrows="1" fold="1" pageScale="1" pageWidth="827" pageHeight="1169" math="0" shadow="0">
      <root>
        <mxCell id="0" />
        <mxCell id="1" parent="0" />
        <mxCell id="DngDsceMsDr6woa6UJfg-1" value="MainWindow" style="rounded=0;whiteSpace=wrap;html=1;" vertex="1" parent="1">
          <mxGeometry x="160" y="120" width="120" height="60" as="geometry" />
        </mxCell>
        <mxCell id="DngDsceMsDr6woa6UJfg-3" value="UI" style="rounded=0;whiteSpace=wrap;html=1;" vertex="1" parent="1">
          <mxGeometry x="920" y="120" width="120" height="60" as="geometry" />
        </mxCell>
        <mxCell id="DngDsceMsDr6woa6UJfg-4" value="Controller" style="rounded=0;whiteSpace=wrap;html=1;" vertex="1" parent="1">
          <mxGeometry x="420" y="120" width="120" height="60" as="geometry" />
        </mxCell>
        <mxCell id="DngDsceMsDr6woa6UJfg-5" value="" style="endArrow=none;dashed=1;html=1;dashPattern=1 3;strokeWidth=2;rounded=0;" edge="1" parent="1" source="CPTXS04qu5CJsJDC1SKM-25">
          <mxGeometry width="50" height="50" relative="1" as="geometry">
            <mxPoint x="220" y="1000" as="sourcePoint" />
            <mxPoint x="219.5" y="180" as="targetPoint" />
          </mxGeometry>
        </mxCell>
        <mxCell id="DngDsceMsDr6woa6UJfg-6" value="" style="endArrow=none;dashed=1;html=1;dashPattern=1 3;strokeWidth=2;rounded=0;" edge="1" parent="1">
          <mxGeometry width="50" height="50" relative="1" as="geometry">
            <mxPoint x="479.5" y="260" as="sourcePoint" />
            <mxPoint x="479.5" y="180" as="targetPoint" />
          </mxGeometry>
        </mxCell>
        <mxCell id="DngDsceMsDr6woa6UJfg-7" value="" style="endArrow=none;dashed=1;html=1;dashPattern=1 3;strokeWidth=2;rounded=0;" edge="1" parent="1" source="CPTXS04qu5CJsJDC1SKM-35">
          <mxGeometry width="50" height="50" relative="1" as="geometry">
            <mxPoint x="980" y="650" as="sourcePoint" />
            <mxPoint x="979.5" y="180" as="targetPoint" />
          </mxGeometry>
        </mxCell>
        <mxCell id="DngDsceMsDr6woa6UJfg-8" value="&amp;lt;&amp;lt;actor&amp;gt;&amp;gt;&lt;div&gt;Paitent&lt;/div&gt;" style="rounded=0;whiteSpace=wrap;html=1;" vertex="1" parent="1">
          <mxGeometry x="-110" y="120" width="120" height="60" as="geometry" />
        </mxCell>
        <mxCell id="DngDsceMsDr6woa6UJfg-9" value="" style="endArrow=none;dashed=1;html=1;dashPattern=1 3;strokeWidth=2;rounded=0;" edge="1" parent="1" source="CPTXS04qu5CJsJDC1SKM-24">
          <mxGeometry width="50" height="50" relative="1" as="geometry">
            <mxPoint x="-50" y="980" as="sourcePoint" />
            <mxPoint x="-50.5" y="180" as="targetPoint" />
          </mxGeometry>
        </mxCell>
        <mxCell id="DngDsceMsDr6woa6UJfg-10" value="" style="endArrow=classic;html=1;rounded=0;endFill=1;" edge="1" parent="1">
          <mxGeometry width="50" height="50" relative="1" as="geometry">
            <mxPoint x="-50" y="240" as="sourcePoint" />
            <mxPoint x="220" y="240" as="targetPoint" />
          </mxGeometry>
        </mxCell>
        <mxCell id="DngDsceMsDr6woa6UJfg-12" value="&amp;lt;&amp;lt;Electrode(s) Loses Contact&amp;gt;&amp;gt;" style="text;html=1;align=center;verticalAlign=middle;whiteSpace=wrap;rounded=0;" vertex="1" parent="1">
          <mxGeometry x="-17.5" y="211" width="195" height="30" as="geometry" />
        </mxCell>
        <mxCell id="DngDsceMsDr6woa6UJfg-16" value="emit electrodeContactLost()" style="text;html=1;align=center;verticalAlign=middle;whiteSpace=wrap;rounded=0;" vertex="1" parent="1">
          <mxGeometry x="260" y="230" width="180" height="30" as="geometry" />
        </mxCell>
        <mxCell id="DngDsceMsDr6woa6UJfg-15" value="" style="endArrow=classic;html=1;rounded=0;endFill=1;" edge="1" parent="1" target="CPTXS04qu5CJsJDC1SKM-29">
          <mxGeometry width="50" height="50" relative="1" as="geometry">
            <mxPoint x="220" y="260" as="sourcePoint" />
            <mxPoint x="480" y="260" as="targetPoint" />
          </mxGeometry>
        </mxCell>
        <mxCell id="DngDsceMsDr6woa6UJfg-19" value="" style="endArrow=classic;html=1;rounded=0;endFill=1;" edge="1" parent="1">
          <mxGeometry width="50" height="50" relative="1" as="geometry">
            <mxPoint x="477" y="390" as="sourcePoint" />
            <mxPoint x="730" y="390" as="targetPoint" />
          </mxGeometry>
        </mxCell>
        <mxCell id="DngDsceMsDr6woa6UJfg-20" value="Electrode" style="rounded=0;whiteSpace=wrap;html=1;" vertex="1" parent="1">
          <mxGeometry x="670" y="120" width="120" height="60" as="geometry" />
        </mxCell>
        <mxCell id="DngDsceMsDr6woa6UJfg-21" value="" style="endArrow=none;dashed=1;html=1;dashPattern=1 3;strokeWidth=2;rounded=0;" edge="1" parent="1">
          <mxGeometry width="50" height="50" relative="1" as="geometry">
            <mxPoint x="720" y="1000" as="sourcePoint" />
            <mxPoint x="729.5" y="180" as="targetPoint" />
          </mxGeometry>
        </mxCell>
        <mxCell id="DngDsceMsDr6woa6UJfg-22" value="emit pauseElectrodes()" style="text;html=1;align=center;verticalAlign=middle;whiteSpace=wrap;rounded=0;" vertex="1" parent="1">
          <mxGeometry x="510" y="360" width="180" height="30" as="geometry" />
        </mxCell>
        <mxCell id="DngDsceMsDr6woa6UJfg-24" value="ui-&gt;ContactLostIndicator-&gt;setStyleSheet(RED)" style="text;whiteSpace=wrap;" vertex="1" parent="1">
          <mxGeometry x="223" y="433" width="300" height="40" as="geometry" />
        </mxCell>
        <mxCell id="DngDsceMsDr6woa6UJfg-29" value="resume()" style="html=1;align=left;spacingLeft=2;endArrow=block;rounded=0;edgeStyle=orthogonalEdgeStyle;curved=0;rounded=0;" edge="1" parent="1">
          <mxGeometry relative="1" as="geometry">
            <mxPoint x="720" y="790" as="sourcePoint" />
            <Array as="points">
              <mxPoint x="750" y="820" />
            </Array>
            <mxPoint x="725" y="820" as="targetPoint" />
          </mxGeometry>
        </mxCell>
        <mxCell id="DngDsceMsDr6woa6UJfg-34" value="" style="endArrow=classic;html=1;rounded=0;endFill=1;" edge="1" parent="1">
          <mxGeometry width="50" height="50" relative="1" as="geometry">
            <mxPoint x="-50" y="620" as="sourcePoint" />
            <mxPoint x="220" y="620" as="targetPoint" />
          </mxGeometry>
        </mxCell>
        <mxCell id="DngDsceMsDr6woa6UJfg-35" value="&amp;lt;&amp;lt;Electrode(s)Gain Contact&amp;gt;&amp;gt;" style="text;html=1;align=center;verticalAlign=middle;whiteSpace=wrap;rounded=0;" vertex="1" parent="1">
          <mxGeometry x="50" y="590" width="60" height="30" as="geometry" />
        </mxCell>
        <mxCell id="DngDsceMsDr6woa6UJfg-47" value="Sequence Diagram:&amp;nbsp;" style="text;html=1;align=center;verticalAlign=middle;whiteSpace=wrap;rounded=0;" vertex="1" parent="1">
          <mxGeometry x="240" y="40" width="400" height="30" as="geometry" />
        </mxCell>
        <mxCell id="DngDsceMsDr6woa6UJfg-49" value="" style="endArrow=none;dashed=1;html=1;dashPattern=1 3;strokeWidth=2;rounded=0;" edge="1" parent="1" source="CPTXS04qu5CJsJDC1SKM-29">
          <mxGeometry width="50" height="50" relative="1" as="geometry">
            <mxPoint x="480" y="260" as="sourcePoint" />
            <mxPoint x="480" y="630" as="targetPoint" />
          </mxGeometry>
        </mxCell>
        <mxCell id="DngDsceMsDr6woa6UJfg-53" value="" style="endArrow=none;dashed=1;html=1;dashPattern=1 3;strokeWidth=2;rounded=0;" edge="1" parent="1" source="CPTXS04qu5CJsJDC1SKM-39">
          <mxGeometry width="50" height="50" relative="1" as="geometry">
            <mxPoint x="480" y="1000" as="sourcePoint" />
            <mxPoint x="480" y="620" as="targetPoint" />
          </mxGeometry>
        </mxCell>
        <mxCell id="DngDsceMsDr6woa6UJfg-55" value="" style="endArrow=none;dashed=1;html=1;dashPattern=1 3;strokeWidth=2;rounded=0;" edge="1" parent="1" source="CPTXS04qu5CJsJDC1SKM-42">
          <mxGeometry width="50" height="50" relative="1" as="geometry">
            <mxPoint x="980" y="1000" as="sourcePoint" />
            <mxPoint x="980" y="650" as="targetPoint" />
          </mxGeometry>
        </mxCell>
        <mxCell id="DngDsceMsDr6woa6UJfg-25" value="" style="endArrow=classic;html=1;rounded=0;endFill=1;" edge="1" parent="1">
          <mxGeometry width="50" height="50" relative="1" as="geometry">
            <mxPoint x="220" y="460" as="sourcePoint" />
            <mxPoint x="980" y="460" as="targetPoint" />
          </mxGeometry>
        </mxCell>
        <mxCell id="DngDsceMsDr6woa6UJfg-26" value="" style="endArrow=classic;html=1;rounded=0;endFill=1;" edge="1" parent="1">
          <mxGeometry width="50" height="50" relative="1" as="geometry">
            <mxPoint x="220" y="500" as="sourcePoint" />
            <mxPoint x="980" y="500" as="targetPoint" />
          </mxGeometry>
        </mxCell>
        <mxCell id="WebJLGy8FmmL_UsZZ-70-2" value="setElectrodeContactSecured()" style="html=1;align=left;spacingLeft=2;endArrow=block;rounded=0;edgeStyle=orthogonalEdgeStyle;curved=0;rounded=0;" edge="1" parent="1">
          <mxGeometry relative="1" as="geometry">
            <mxPoint x="480" y="670" as="sourcePoint" />
            <Array as="points">
              <mxPoint x="510" y="700" />
            </Array>
            <mxPoint x="485" y="700" as="targetPoint" />
          </mxGeometry>
        </mxCell>
        <mxCell id="WebJLGy8FmmL_UsZZ-70-3" value="displayMessage(&quot;Electrode Contact Lost: Please Reconnect&quot;, TREATMENT_SCREEN)" style="html=1;align=left;spacingLeft=2;endArrow=block;rounded=0;edgeStyle=orthogonalEdgeStyle;curved=0;rounded=0;" edge="1" parent="1">
          <mxGeometry relative="1" as="geometry">
            <mxPoint x="220" y="520" as="sourcePoint" />
            <Array as="points">
              <mxPoint x="250" y="550" />
            </Array>
            <mxPoint x="225" y="550" as="targetPoint" />
          </mxGeometry>
        </mxCell>
        <mxCell id="CPTXS04qu5CJsJDC1SKM-1" value="ui-&gt;ContactSecuredIndicator-&gt;setStyleSheet(GREY)" style="text;whiteSpace=wrap;" vertex="1" parent="1">
          <mxGeometry x="223" y="473" width="300" height="40" as="geometry" />
        </mxCell>
        <mxCell id="CPTXS04qu5CJsJDC1SKM-2" value="pauseSession()" style="html=1;align=left;spacingLeft=2;endArrow=block;rounded=0;edgeStyle=orthogonalEdgeStyle;curved=0;rounded=0;" edge="1" parent="1">
          <mxGeometry relative="1" as="geometry">
            <mxPoint x="480" y="330" as="sourcePoint" />
            <Array as="points">
              <mxPoint x="510" y="360" />
            </Array>
            <mxPoint x="485" y="360" as="targetPoint" />
          </mxGeometry>
        </mxCell>
        <mxCell id="CPTXS04qu5CJsJDC1SKM-4" value="" style="endArrow=classic;html=1;rounded=0;endFill=1;" edge="1" parent="1">
          <mxGeometry width="50" height="50" relative="1" as="geometry">
            <mxPoint x="220" y="600" as="sourcePoint" />
            <mxPoint x="980" y="600" as="targetPoint" />
          </mxGeometry>
        </mxCell>
        <mxCell id="CPTXS04qu5CJsJDC1SKM-5" value="" style="endArrow=classic;html=1;rounded=0;endFill=1;" edge="1" parent="1">
          <mxGeometry width="50" height="50" relative="1" as="geometry">
            <mxPoint x="220" y="570" as="sourcePoint" />
            <mxPoint x="980" y="570" as="targetPoint" />
          </mxGeometry>
        </mxCell>
        <mxCell id="CPTXS04qu5CJsJDC1SKM-6" value="ui-&gt;screenStack-&gt;setCurrentIndex(returnScreen)" style="text;whiteSpace=wrap;" vertex="1" parent="1">
          <mxGeometry x="223" y="545" width="300" height="40" as="geometry" />
        </mxCell>
        <mxCell id="CPTXS04qu5CJsJDC1SKM-7" value="ui-&gt;menuView-&gt;setFocus()" style="text;whiteSpace=wrap;" vertex="1" parent="1">
          <mxGeometry x="264" y="580" width="300" height="40" as="geometry" />
        </mxCell>
        <mxCell id="CPTXS04qu5CJsJDC1SKM-8" value="" style="endArrow=classic;html=1;rounded=0;endFill=1;" edge="1" parent="1">
          <mxGeometry width="50" height="50" relative="1" as="geometry">
            <mxPoint x="220" y="650" as="sourcePoint" />
            <mxPoint x="480" y="650" as="targetPoint" />
          </mxGeometry>
        </mxCell>
        <mxCell id="CPTXS04qu5CJsJDC1SKM-9" value="emit electrodeContactRegained()" style="text;whiteSpace=wrap;" vertex="1" parent="1">
          <mxGeometry x="257" y="620" width="186" height="30" as="geometry" />
        </mxCell>
        <mxCell id="CPTXS04qu5CJsJDC1SKM-10" value="setElectrodeContactLost()" style="html=1;align=left;spacingLeft=2;endArrow=block;rounded=0;edgeStyle=orthogonalEdgeStyle;curved=0;rounded=0;" edge="1" parent="1">
          <mxGeometry relative="1" as="geometry">
            <mxPoint x="480" y="290" as="sourcePoint" />
            <Array as="points">
              <mxPoint x="510" y="320" />
            </Array>
            <mxPoint x="485" y="320" as="targetPoint" />
          </mxGeometry>
        </mxCell>
        <mxCell id="CPTXS04qu5CJsJDC1SKM-11" value="sessionTimer-&amp;gt;start()" style="html=1;align=left;spacingLeft=2;endArrow=block;rounded=0;edgeStyle=orthogonalEdgeStyle;curved=0;rounded=0;" edge="1" parent="1">
          <mxGeometry relative="1" as="geometry">
            <mxPoint x="223" y="930" as="sourcePoint" />
            <Array as="points">
              <mxPoint x="253" y="960" />
            </Array>
            <mxPoint x="228" y="960" as="targetPoint" />
          </mxGeometry>
        </mxCell>
        <mxCell id="CPTXS04qu5CJsJDC1SKM-12" value="" style="endArrow=classic;html=1;rounded=0;endFill=1;" edge="1" parent="1">
          <mxGeometry width="50" height="50" relative="1" as="geometry">
            <mxPoint x="480" y="780" as="sourcePoint" />
            <mxPoint x="720" y="780" as="targetPoint" />
          </mxGeometry>
        </mxCell>
        <mxCell id="CPTXS04qu5CJsJDC1SKM-13" value="emit resumeSession()" style="text;html=1;align=center;verticalAlign=middle;whiteSpace=wrap;rounded=0;" vertex="1" parent="1">
          <mxGeometry x="500" y="750" width="180" height="30" as="geometry" />
        </mxCell>
        <mxCell id="CPTXS04qu5CJsJDC1SKM-14" value="handlePauseRequested()" style="html=1;align=left;spacingLeft=2;endArrow=block;rounded=0;edgeStyle=orthogonalEdgeStyle;curved=0;rounded=0;" edge="1" parent="1">
          <mxGeometry relative="1" as="geometry">
            <mxPoint x="730" y="410" as="sourcePoint" />
            <Array as="points">
              <mxPoint x="760" y="440" />
            </Array>
            <mxPoint x="735" y="440" as="targetPoint" />
          </mxGeometry>
        </mxCell>
        <mxCell id="CPTXS04qu5CJsJDC1SKM-16" value="" style="endArrow=classic;html=1;rounded=0;endFill=1;" edge="1" parent="1">
          <mxGeometry width="50" height="50" relative="1" as="geometry">
            <mxPoint x="220" y="850" as="sourcePoint" />
            <mxPoint x="980" y="850" as="targetPoint" />
          </mxGeometry>
        </mxCell>
        <mxCell id="CPTXS04qu5CJsJDC1SKM-17" value="" style="endArrow=classic;html=1;rounded=0;endFill=1;" edge="1" parent="1">
          <mxGeometry width="50" height="50" relative="1" as="geometry">
            <mxPoint x="220" y="890" as="sourcePoint" />
            <mxPoint x="980" y="890" as="targetPoint" />
          </mxGeometry>
        </mxCell>
        <mxCell id="CPTXS04qu5CJsJDC1SKM-18" value="ui-&gt;ContactLostIndicator-&gt;setStyleSheet(GREY)" style="text;whiteSpace=wrap;" vertex="1" parent="1">
          <mxGeometry x="223" y="820" width="300" height="40" as="geometry" />
        </mxCell>
        <mxCell id="CPTXS04qu5CJsJDC1SKM-19" value="ui-&gt;ContactSecuredIndicator-&gt;setStyleSheet(BLUE)" style="text;whiteSpace=wrap;" vertex="1" parent="1">
          <mxGeometry x="223" y="860" width="300" height="40" as="geometry" />
        </mxCell>
        <mxCell id="CPTXS04qu5CJsJDC1SKM-20" value="" style="endArrow=classic;html=1;rounded=0;endFill=1;" edge="1" parent="1">
          <mxGeometry width="50" height="50" relative="1" as="geometry">
            <mxPoint x="220" y="920" as="sourcePoint" />
            <mxPoint x="980" y="920" as="targetPoint" />
          </mxGeometry>
        </mxCell>
        <mxCell id="CPTXS04qu5CJsJDC1SKM-21" value="ui-&gt;menuView-&gt;setFocus()" style="text;whiteSpace=wrap;" vertex="1" parent="1">
          <mxGeometry x="264" y="900" width="300" height="30" as="geometry" />
        </mxCell>
        <mxCell id="CPTXS04qu5CJsJDC1SKM-22" value="resumeTreatmentSession()" style="html=1;align=left;spacingLeft=2;endArrow=block;rounded=0;edgeStyle=orthogonalEdgeStyle;curved=0;rounded=0;" edge="1" parent="1">
          <mxGeometry relative="1" as="geometry">
            <mxPoint x="480" y="730" as="sourcePoint" />
            <Array as="points">
              <mxPoint x="510" y="760" />
            </Array>
            <mxPoint x="485" y="760" as="targetPoint" />
          </mxGeometry>
        </mxCell>
        <mxCell id="CPTXS04qu5CJsJDC1SKM-23" value="" style="endArrow=none;dashed=1;html=1;dashPattern=1 3;strokeWidth=2;rounded=0;" edge="1" parent="1" target="CPTXS04qu5CJsJDC1SKM-24">
          <mxGeometry width="50" height="50" relative="1" as="geometry">
            <mxPoint x="-50" y="1000" as="sourcePoint" />
            <mxPoint x="-50.5" y="180" as="targetPoint" />
          </mxGeometry>
        </mxCell>
        <mxCell id="CPTXS04qu5CJsJDC1SKM-24" value="" style="html=1;points=[[0,0,0,0,5],[0,1,0,0,-5],[1,0,0,0,5],[1,1,0,0,-5]];perimeter=orthogonalPerimeter;outlineConnect=0;targetShapes=umlLifeline;portConstraint=eastwest;newEdgeStyle={&quot;curved&quot;:0,&quot;rounded&quot;:0};" vertex="1" parent="1">
          <mxGeometry x="-55" y="230" width="10" height="740" as="geometry" />
        </mxCell>
        <mxCell id="CPTXS04qu5CJsJDC1SKM-26" value="" style="endArrow=none;dashed=1;html=1;dashPattern=1 3;strokeWidth=2;rounded=0;" edge="1" parent="1" source="CPTXS04qu5CJsJDC1SKM-27" target="CPTXS04qu5CJsJDC1SKM-25">
          <mxGeometry width="50" height="50" relative="1" as="geometry">
            <mxPoint x="220" y="1000" as="sourcePoint" />
            <mxPoint x="219.5" y="180" as="targetPoint" />
          </mxGeometry>
        </mxCell>
        <mxCell id="CPTXS04qu5CJsJDC1SKM-25" value="" style="html=1;points=[[0,0,0,0,5],[0,1,0,0,-5],[1,0,0,0,5],[1,1,0,0,-5]];perimeter=orthogonalPerimeter;outlineConnect=0;targetShapes=umlLifeline;portConstraint=eastwest;newEdgeStyle={&quot;curved&quot;:0,&quot;rounded&quot;:0};" vertex="1" parent="1">
          <mxGeometry x="215" y="250" width="10" height="310" as="geometry" />
        </mxCell>
        <mxCell id="CPTXS04qu5CJsJDC1SKM-28" value="" style="endArrow=none;dashed=1;html=1;dashPattern=1 3;strokeWidth=2;rounded=0;" edge="1" parent="1" target="CPTXS04qu5CJsJDC1SKM-27">
          <mxGeometry width="50" height="50" relative="1" as="geometry">
            <mxPoint x="220" y="1000" as="sourcePoint" />
            <mxPoint x="220" y="560" as="targetPoint" />
          </mxGeometry>
        </mxCell>
        <mxCell id="CPTXS04qu5CJsJDC1SKM-27" value="" style="html=1;points=[[0,0,0,0,5],[0,1,0,0,-5],[1,0,0,0,5],[1,1,0,0,-5]];perimeter=orthogonalPerimeter;outlineConnect=0;targetShapes=umlLifeline;portConstraint=eastwest;newEdgeStyle={&quot;curved&quot;:0,&quot;rounded&quot;:0};" vertex="1" parent="1">
          <mxGeometry x="215" y="620" width="10" height="350" as="geometry" />
        </mxCell>
        <mxCell id="CPTXS04qu5CJsJDC1SKM-30" value="" style="endArrow=none;dashed=1;html=1;dashPattern=1 3;strokeWidth=2;rounded=0;" edge="1" parent="1" target="CPTXS04qu5CJsJDC1SKM-29">
          <mxGeometry width="50" height="50" relative="1" as="geometry">
            <mxPoint x="480" y="260" as="sourcePoint" />
            <mxPoint x="480" y="630" as="targetPoint" />
          </mxGeometry>
        </mxCell>
        <mxCell id="CPTXS04qu5CJsJDC1SKM-29" value="" style="html=1;points=[[0,0,0,0,5],[0,1,0,0,-5],[1,0,0,0,5],[1,1,0,0,-5]];perimeter=orthogonalPerimeter;outlineConnect=0;targetShapes=umlLifeline;portConstraint=eastwest;newEdgeStyle={&quot;curved&quot;:0,&quot;rounded&quot;:0};" vertex="1" parent="1">
          <mxGeometry x="475" y="250" width="10" height="180" as="geometry" />
        </mxCell>
        <mxCell id="CPTXS04qu5CJsJDC1SKM-34" value="" style="html=1;points=[[0,0,0,0,5],[0,1,0,0,-5],[1,0,0,0,5],[1,1,0,0,-5]];perimeter=orthogonalPerimeter;outlineConnect=0;targetShapes=umlLifeline;portConstraint=eastwest;newEdgeStyle={&quot;curved&quot;:0,&quot;rounded&quot;:0};" vertex="1" parent="1">
          <mxGeometry x="722" y="392" width="10" height="58" as="geometry" />
        </mxCell>
        <mxCell id="CPTXS04qu5CJsJDC1SKM-36" value="" style="endArrow=none;dashed=1;html=1;dashPattern=1 3;strokeWidth=2;rounded=0;" edge="1" parent="1" source="CPTXS04qu5CJsJDC1SKM-43" target="CPTXS04qu5CJsJDC1SKM-35">
          <mxGeometry width="50" height="50" relative="1" as="geometry">
            <mxPoint x="980" y="650" as="sourcePoint" />
            <mxPoint x="979.5" y="180" as="targetPoint" />
          </mxGeometry>
        </mxCell>
        <mxCell id="CPTXS04qu5CJsJDC1SKM-35" value="" style="html=1;points=[[0,0,0,0,5],[0,1,0,0,-5],[1,0,0,0,5],[1,1,0,0,-5]];perimeter=orthogonalPerimeter;outlineConnect=0;targetShapes=umlLifeline;portConstraint=eastwest;newEdgeStyle={&quot;curved&quot;:0,&quot;rounded&quot;:0};" vertex="1" parent="1">
          <mxGeometry x="975" y="450" width="10" height="70" as="geometry" />
        </mxCell>
        <mxCell id="CPTXS04qu5CJsJDC1SKM-38" value="" style="endArrow=none;dashed=1;html=1;dashPattern=1 3;strokeWidth=2;rounded=0;" edge="1" parent="1" target="CPTXS04qu5CJsJDC1SKM-39">
          <mxGeometry width="50" height="50" relative="1" as="geometry">
            <mxPoint x="480" y="1000" as="sourcePoint" />
            <mxPoint x="480" y="620" as="targetPoint" />
          </mxGeometry>
        </mxCell>
        <mxCell id="CPTXS04qu5CJsJDC1SKM-39" value="" style="html=1;points=[[0,0,0,0,5],[0,1,0,0,-5],[1,0,0,0,5],[1,1,0,0,-5]];perimeter=orthogonalPerimeter;outlineConnect=0;targetShapes=umlLifeline;portConstraint=eastwest;newEdgeStyle={&quot;curved&quot;:0,&quot;rounded&quot;:0};" vertex="1" parent="1">
          <mxGeometry x="475" y="650" width="10" height="170" as="geometry" />
        </mxCell>
        <mxCell id="CPTXS04qu5CJsJDC1SKM-40" value="" style="html=1;points=[[0,0,0,0,5],[0,1,0,0,-5],[1,0,0,0,5],[1,1,0,0,-5]];perimeter=orthogonalPerimeter;outlineConnect=0;targetShapes=umlLifeline;portConstraint=eastwest;newEdgeStyle={&quot;curved&quot;:0,&quot;rounded&quot;:0};" vertex="1" parent="1">
          <mxGeometry x="717" y="777" width="10" height="63" as="geometry" />
        </mxCell>
        <mxCell id="CPTXS04qu5CJsJDC1SKM-41" value="" style="endArrow=none;dashed=1;html=1;dashPattern=1 3;strokeWidth=2;rounded=0;" edge="1" parent="1" target="CPTXS04qu5CJsJDC1SKM-42">
          <mxGeometry width="50" height="50" relative="1" as="geometry">
            <mxPoint x="980" y="1000" as="sourcePoint" />
            <mxPoint x="980" y="650" as="targetPoint" />
          </mxGeometry>
        </mxCell>
        <mxCell id="CPTXS04qu5CJsJDC1SKM-42" value="" style="html=1;points=[[0,0,0,0,5],[0,1,0,0,-5],[1,0,0,0,5],[1,1,0,0,-5]];perimeter=orthogonalPerimeter;outlineConnect=0;targetShapes=umlLifeline;portConstraint=eastwest;newEdgeStyle={&quot;curved&quot;:0,&quot;rounded&quot;:0};" vertex="1" parent="1">
          <mxGeometry x="975" y="830" width="10" height="100" as="geometry" />
        </mxCell>
        <mxCell id="CPTXS04qu5CJsJDC1SKM-44" value="" style="endArrow=none;dashed=1;html=1;dashPattern=1 3;strokeWidth=2;rounded=0;" edge="1" parent="1" target="CPTXS04qu5CJsJDC1SKM-43">
          <mxGeometry width="50" height="50" relative="1" as="geometry">
            <mxPoint x="980" y="650" as="sourcePoint" />
            <mxPoint x="980" y="520" as="targetPoint" />
          </mxGeometry>
        </mxCell>
        <mxCell id="CPTXS04qu5CJsJDC1SKM-43" value="" style="html=1;points=[[0,0,0,0,5],[0,1,0,0,-5],[1,0,0,0,5],[1,1,0,0,-5]];perimeter=orthogonalPerimeter;outlineConnect=0;targetShapes=umlLifeline;portConstraint=eastwest;newEdgeStyle={&quot;curved&quot;:0,&quot;rounded&quot;:0};" vertex="1" parent="1">
          <mxGeometry x="975" y="560" width="10" height="70" as="geometry" />
        </mxCell>
        <mxCell id="nPJrwDI7klDUH-F2H7YR-1" value="sd: Reconnecting electrode to device after connection loss between electrode and the device" style="shape=umlFrame;whiteSpace=wrap;html=1;pointerEvents=0;width=510;height=20;" vertex="1" parent="1">
          <mxGeometry x="-200" y="80" width="1280" height="960" as="geometry" />
        </mxCell>
      </root>
    </mxGraphModel>
  </diagram>
</mxfile>
